<svg xmlns="http://www.w3.org/2000/svg" viewBox="0 0 800 436" role="img" aria-label="Escape Pool Services">
<g transform="translate(0,436) scale(0.1,-0.1)">
<g fill="#1F3A5F">
<path d="M2254 2201 c-154 -70 -162 -305 -13 -381 152 -78 319 20 319 187 -1
164 -156 262 -306 194z m141 -65 c124 -52 90 -266 -43 -266 -142 0 -181 198
-52 262 42 22 51 22 95 4z"/>
<path d="M2745 2201 c-141 -65 -169 -260 -51 -358 154 -127 369 -14 354 187
-11 147 -166 235 -303 171z m158 -73 c33 -17 57 -70 57 -126 0 -167 -232 -178
-248 -11 -11 116 91 189 191 137z"/>
<path d="M3678 2198 c-41 -24 -58 -54 -58 -104 0 -65 35 -95 145 -124 56 -15
85 -35 85 -60 0 -46 -91 -58 -172 -22 l-45 20 -11 -34 c-12 -40 -4 -49 64 -70
121 -36 238 10 244 96 6 78 -19 110 -109 135 -88 25 -110 36 -117 58 -15 48
69 73 143 42 19 -8 37 -15 38 -15 8 0 26 60 21 69 -22 35 -173 41 -228 9z"/>
<path d="M5047 2206 c-8 -6 -38 -71 -68 -144 -29 -73 -57 -131 -62 -129 -6 2
-35 65 -65 140 l-55 137 -44 0 c-23 0 -43 -4 -43 -8 0 -4 35 -95 78 -202 l78
-195 48 0 48 0 84 204 c46 111 84 204 84 205 0 8 -72 2 -83 -8z"/>
<path d="M5459 2197 c-148 -79 -147 -306 3 -383 71 -37 174 -25 231 26 l32 28
-24 26 -24 25 -29 -20 c-120 -86 -263 46 -194 178 32 63 135 85 191 42 l27
-22 26 26 c69 70 -130 131 -239 74z"/>
<path d="M6244 2206 c-93 -41 -100 -162 -12 -207 20 -10 42 -19 47 -19 40 0
121 -43 121 -64 0 -51 -82 -66 -168 -31 -49 20 -50 19 -58 -21 -5 -26 -2 -31
30 -46 131 -63 281 -8 281 102 0 64 -26 90 -112 115 -115 32 -134 46 -113 85
19 35 90 36 175 4 14 -6 40 56 28 67 -34 29 -165 38 -219 15z"/>
<path d="M1740 2005 l0 -205 40 0 c37 0 40 2 40 29 0 84 4 89 89 92 122 6 183
68 166 169 -16 92 -68 120 -225 120 l-110 0 0 -205z m225 110 c56 -55 20 -116
-74 -123 l-61 -4 0 76 0 76 55 0 c46 0 60 -4 80 -25z"/>
<path d="M3130 2005 l0 -205 145 0 145 0 0 35 0 35 -100 0 -100 0 0 170 0 170
-45 0 -45 0 0 -205z"/>
<path d="M3966 2063 c1 -82 2 -174 3 -205 l1 -58 145 0 145 0 0 35 0 35 -105
0 -105 0 0 50 0 50 90 0 90 0 0 35 0 34 -87 3 -88 3 -3 48 -3 47 105 0 106 0
0 35 0 35 -148 0 -148 0 2 -147z"/>
<path d="M4350 2005 l0 -205 45 0 45 0 0 60 0 60 44 0 c44 0 45 -1 81 -60 36
-59 37 -60 81 -60 53 0 53 -3 5 72 l-39 62 24 23 c69 64 55 192 -26 235 -28
14 -57 18 -147 18 l-113 0 0 -205z m220 115 c57 -57 10 -130 -84 -130 l-46 0
0 75 0 75 55 0 c42 0 60 -5 75 -20z"/>
<path d="M5180 2005 l0 -205 45 0 45 0 0 205 0 205 -45 0 -45 0 0 -205z"/>
<path d="M5800 2005 l0 -205 150 0 150 0 0 35 0 34 -107 3 -108 3 -3 47 -3 47
93 3 93 3 3 32 3 32 -93 3 -93 3 0 45 0 45 108 3 107 3 0 34 0 35 -150 0 -150
0 0 -205z"/>
<path d="M2465 1633 c-22 -2 -89 -18 -149 -35 -129 -36 -261 -36 -376 1 -36
12 -94 23 -130 26 l-65 4 62 -9 c33 -5 93 -18 132 -30 148 -44 244 -43 407 6
125 36 236 36 359 -2 131 -41 279 -41 419 0 89 26 109 28 212 24 63 -2 112 -3
111 -1 -2 1 -34 7 -73 12 -82 12 -165 2 -290 -34 -120 -35 -214 -34 -358 4
-116 31 -194 41 -261 34z"/>
<path d="M3975 1626 c-180 -49 -214 -56 -284 -56 -46 0 -106 8 -150 20 -40 12
-75 19 -78 17 -2 -3 33 -15 79 -27 111 -30 246 -24 363 15 114 39 217 39 345
0 132 -41 269 -41 385 -2 109 36 215 37 351 1 164 -43 286 -44 420 -4 126 39
215 43 308 16 32 -9 60 -15 62 -13 3 2 -24 12 -58 22 -97 28 -185 25 -312 -13
-145 -43 -223 -43 -400 -1 -172 41 -258 42 -376 3 -119 -40 -247 -40 -375 -1
-109 33 -211 42 -280 23z"/>
<path d="M6155 1603 c-84 -27 -242 -37 -330 -21 -34 7 -36 6 -15 -3 60 -27
211 -23 316 7 87 25 115 29 229 29 71 0 116 3 100 6 -77 17 -219 8 -300 -18z"/>
<path d="M2445 1570 c-27 -4 -81 -17 -120 -30 -120 -38 -229 -38 -376 -1 -81
21 -141 31 -169 28 l-45 -4 50 -1 c28 -1 100 -16 160 -32 150 -41 235 -41 381
1 117 34 238 42 319 21 22 -6 76 -20 119 -31 111 -30 219 -28 327 4 163 50
263 50 433 1 126 -37 220 -35 362 6 147 42 228 42 385 0 115 -32 211 -40 269
-22 14 4 -14 5 -61 2 -76 -4 -99 -1 -200 28 -155 45 -256 46 -384 4 -128 -41
-268 -41 -405 0 -130 39 -249 40 -365 1 -129 -43 -242 -45 -385 -7 -129 34
-221 44 -295 32z"/>
<path d="M4750 1573 c-42 -5 -182 -44 -176 -50 2 -3 35 5 73 17 101 32 216 29
368 -9 164 -42 246 -42 391 1 143 41 210 41 365 -1 154 -41 229 -42 375 0 100
29 118 31 223 27 75 -3 106 -1 90 5 -55 21 -200 12 -299 -19 -135 -41 -265
-41 -400 0 -130 40 -223 40 -340 1 -131 -43 -234 -45 -397 -7 -132 31 -212 41
-273 35z"/>
<path d="M1820 1333 c-121 -37 -114 -194 9 -210 51 -7 100 19 80 43 -8 10 -15
12 -23 4 -28 -28 -89 -9 -105 34 -22 57 41 118 91 87 17 -11 23 -10 35 2 14
13 13 16 -3 25 -27 13 -67 21 -84 15z"/>
<path d="M3192 1325 c-92 -40 -70 -185 32 -202 63 -10 96 12 96 64 0 55 -33
60 -38 6 -4 -37 -26 -46 -69 -28 -82 35 -26 159 57 128 48 -18 64 12 17 32
-44 18 -53 18 -95 0z"/>
<path d="M3775 1333 c-45 -11 -69 -56 -47 -90 4 -6 29 -20 56 -30 56 -20 67
-37 36 -53 -14 -8 -31 -8 -57 -1 -41 12 -48 9 -40 -13 3 -8 22 -18 41 -22 116
-21 161 87 49 118 -69 20 -70 53 -1 52 29 0 49 5 52 12 7 18 -53 35 -89 27z"/>
<path d="M4652 1325 c-105 -46 -59 -215 55 -202 53 6 78 24 62 43 -8 10 -16
11 -31 3 -33 -18 -81 -7 -97 23 -32 57 27 124 88 101 48 -18 63 9 17 31 -41
19 -51 19 -94 1z"/>
<path d="M1960 1225 l0 -105 70 0 c63 0 70 2 70 20 0 17 -7 20 -50 20 l-50 0
0 85 c0 78 -2 85 -20 85 -19 0 -20 -7 -20 -105z"/>
<path d="M2140 1225 l0 -105 75 0 c68 0 75 2 75 20 0 18 -7 20 -55 20 -52 0
-55 1 -55 24 0 22 5 25 47 28 64 4 69 26 6 30 -44 3 -48 5 -48 28 0 23 4 25
53 28 37 2 52 7 52 18 0 11 -16 14 -75 14 l-75 0 0 -105z"/>
<path d="M2366 1238 c-21 -51 -41 -99 -43 -105 -10 -25 34 -13 45 12 10 21 18
25 57 25 37 0 47 -4 61 -25 16 -24 44 -34 44 -16 0 5 -19 53 -42 105 -56 130
-70 131 -122 4z m80 7 c19 -46 19 -45 -21 -45 -41 0 -39 -3 -20 44 19 45 22
45 41 1z"/>
<path d="M2570 1224 c0 -95 2 -105 18 -102 13 2 18 17 22 67 l5 63 53 -66 c74
-93 82 -90 82 39 0 98 -1 105 -20 105 -18 0 -20 -7 -20 -60 0 -74 -4 -74 -60
0 -68 90 -80 83 -80 -46z"/>
<path d="M2810 1225 c0 -98 1 -105 20 -105 19 0 20 7 20 105 0 98 -1 105 -20
105 -19 0 -20 -7 -20 -105z"/>
<path d="M2910 1224 c0 -95 2 -105 18 -102 13 2 18 16 22 65 l5 62 53 -65 c69
-85 76 -81 80 44 3 97 2 102 -18 102 -18 0 -20 -6 -20 -60 0 -33 -4 -60 -9
-60 -4 0 -29 27 -55 60 -68 87 -76 82 -76 -46z"/>
<path d="M3920 1225 l0 -105 75 0 c68 0 75 2 75 20 0 18 -7 20 -55 20 -52 0
-55 1 -55 25 0 23 4 25 45 25 38 0 45 3 45 20 0 18 -6 20 -42 18 -40 -3 -43
-1 -46 25 -3 27 -2 27 52 27 43 0 56 3 56 15 0 12 -15 15 -75 15 l-75 0 0
-105z"/>
<path d="M4120 1225 c0 -85 3 -105 14 -105 9 0 16 12 18 28 5 42 51 44 73 3 9
-19 23 -31 35 -31 24 0 25 4 3 41 -16 26 -16 29 0 47 51 56 6 122 -83 122
l-60 0 0 -105z m108 63 c21 -21 14 -57 -12 -70 -39 -17 -56 -4 -56 42 0 37 2
40 28 40 15 0 33 -5 40 -12z"/>
<path d="M4310 1325 c0 -12 74 -185 79 -185 6 0 81 172 81 184 0 27 -35 -3
-55 -46 l-23 -53 -22 53 c-16 36 -28 52 -41 52 -11 0 -19 -2 -19 -5z"/>
<path d="M4510 1224 c0 -95 2 -105 18 -102 29 5 31 208 2 208 -19 0 -20 -6
-20 -106z"/>
<path d="M4820 1225 l0 -105 75 0 c68 0 75 2 75 20 0 18 -7 20 -55 20 -52 0
-55 1 -55 24 0 22 5 25 47 28 64 4 69 26 6 30 -44 3 -48 5 -51 31 -3 27 -2 27
52 27 43 0 56 3 56 15 0 12 -15 15 -75 15 l-75 0 0 -105z"/>
<path d="M5383 1228 c4 -83 7 -104 20 -106 11 -2 17 6 19 30 5 49 39 51 68 4
30 -49 69 -52 44 -4 -15 29 -15 34 0 59 43 72 7 119 -90 119 l-65 0 4 -102z
m117 57 c25 -30 4 -65 -40 -65 -39 0 -40 1 -40 33 0 19 3 37 7 40 12 13 60 7
73 -8z"/>
<path d="M5600 1225 l0 -105 75 0 c68 0 75 2 75 20 0 18 -7 20 -55 20 -51 0
-55 2 -55 24 0 21 6 25 50 31 63 9 65 23 3 27 -44 3 -48 5 -51 31 -3 27 -2 27
52 27 43 0 56 3 56 15 0 12 -15 15 -75 15 l-75 0 0 -105z"/>
<path d="M5800 1224 c0 -95 2 -105 18 -102 10 2 18 14 20 31 3 23 8 27 33 27
69 0 117 58 89 109 -16 31 -43 41 -104 41 l-56 0 0 -106z m114 60 c28 -28 8
-61 -39 -66 -29 -3 -30 -1 -33 40 -3 41 -2 42 27 42 16 0 37 -7 45 -16z"/>
<path d="M6056 1322 c-15 -24 -76 -175 -76 -188 0 -23 26 -16 38 11 16 34 110
38 119 5 3 -11 14 -20 25 -20 23 0 22 5 -27 117 -32 75 -62 103 -79 75z m42
-75 c16 -46 16 -47 -18 -47 -33 0 -35 3 -19 49 14 40 22 39 37 -2z"/>
<path d="M6220 1230 c0 -93 1 -100 20 -100 19 0 20 7 20 100 0 93 -1 100 -20
100 -19 0 -20 -7 -20 -100z"/>
<path d="M6320 1224 c0 -95 2 -105 18 -102 10 2 18 14 20 31 5 39 46 38 67 -3
13 -25 65 -47 53 -22 -2 4 -10 19 -17 34 -12 24 -12 30 2 46 51 56 6 122 -83
122 l-60 0 0 -106z m110 62 c24 -30 8 -61 -32 -64 l-38 -3 0 40 c0 38 2 41 29
41 16 0 34 -7 41 -14z"/>
<path d="M3422 1248 c-21 -21 -16 -55 6 -35 15 13 20 14 42 2 36 -20 58 -18
70 6 15 26 7 34 -18 18 -16 -10 -24 -9 -43 4 -28 20 -41 21 -57 5z"/>
<path d="M5120 1240 c-21 -21 -26 -40 -11 -40 5 0 14 7 21 15 12 14 15 14 36
0 34 -22 63 -19 73 8 11 28 8 31 -16 16 -15 -9 -26 -8 -51 5 -30 16 -33 15
-52 -4z"/>
</g>
<g fill="#4BA8A8">
<path d="M2785 3313 c-168 -16 -278 -118 -279 -258 0 -133 59 -185 278 -247
179 -50 216 -75 216 -140 0 -116 -188 -158 -356 -79 -38 18 -76 39 -86 48 -15
14 -19 10 -48 -46 l-30 -61 32 -20 c188 -116 430 -122 556 -15 112 94 103 286
-16 365 -48 31 -56 34 -207 76 -160 43 -195 67 -195 133 0 110 183 153 339 81
80 -38 75 -39 100 21 28 68 29 64 -31 92 -86 40 -183 58 -273 50z"/>
<path d="M3630 3309 c-290 -50 -452 -371 -324 -644 118 -252 478 -329 678
-145 l46 42 -43 48 -42 47 -40 -32 c-205 -166 -488 -30 -489 235 -2 271 265
416 475 258 l52 -40 45 46 46 45 -20 22 c-79 90 -246 141 -384 118z"/>
<path d="M1740 2865 l0 -435 310 0 310 0 0 65 0 65 -237 2 -238 3 0 120 0 120
203 3 202 2 0 65 0 65 -205 0 -205 0 0 115 0 115 230 0 230 0 0 65 0 65 -300
0 -300 0 0 -435z"/>
<path d="M4389 3253 c-61 -143 -141 -344 -138 -347 2 -2 33 -6 69 -9 l65 -6
47 122 c25 67 49 122 53 122 4 0 38 -76 77 -170 83 -201 83 -202 179 -175 l36
10 -107 248 -107 247 -77 3 -76 3 -21 -48z"/>
<path d="M5020 2866 l0 -436 70 0 70 0 0 130 0 130 98 0 c200 1 301 30 376
110 102 109 100 305 -5 409 -76 76 -116 86 -376 89 l-233 3 0 -435z m473 271
c102 -78 90 -224 -23 -287 -41 -22 -56 -24 -175 -25 l-130 0 -3 173 -2 173
148 -3 c145 -3 150 -4 185 -31z"/>
<path d="M5865 2868 l0 -433 313 -3 312 -2 0 65 0 65 -240 0 -240 0 0 125 0
125 205 0 205 0 0 65 0 65 -205 0 -205 0 0 115 0 115 230 0 230 0 0 65 0 65
-303 0 -303 0 1 -432z"/>
<path d="M4183 2833 c-39 -13 -149 -100 -140 -109 2 -3 26 6 53 18 91 41 157
32 308 -42 160 -79 236 -90 329 -47 62 28 131 87 154 130 l15 30 -33 -22
c-111 -73 -226 -79 -354 -17 -161 77 -241 92 -332 59z"/>
<path d="M4152 2689 c-35 -92 -81 -218 -87 -236 -6 -22 -4 -23 64 -23 l70 0
21 58 c44 119 53 142 56 142 1 0 37 -13 79 -30 91 -34 149 -44 190 -31 25 8
26 9 8 10 -34 1 -118 37 -195 83 -89 53 -192 66 -206 27z"/>
<path d="M4778 2617 l-56 -33 30 -77 29 -77 79 0 78 0 -46 110 c-26 60 -49
109 -52 109 -3 0 -30 -15 -62 -32z"/>
<path d="M2333 2223 c9 -2 25 -2 35 0 9 3 1 5 -18 5 -19 0 -27 -2 -17 -5z"/>
<path d="M2823 2223 c9 -2 23 -2 30 0 6 3 -1 5 -18 5 -16 0 -22 -2 -12 -5z"/>
<path d="M3763 2223 c9 -2 23 -2 30 0 6 3 -1 5 -18 5 -16 0 -22 -2 -12 -5z"/>
<path d="M5553 2223 c9 -2 23 -2 30 0 6 3 -1 5 -18 5 -16 0 -22 -2 -12 -5z"/>
<path d="M6313 2223 c9 -2 25 -2 35 0 9 3 1 5 -18 5 -19 0 -27 -2 -17 -5z"/>
<path d="M1847 2213 c18 -2 50 -2 70 0 21 2 7 4 -32 4 -38 0 -55 -2 -38 -4z"/>
<path d="M4033 2213 c42 -2 112 -2 155 0 42 1 7 3 -78 3 -85 0 -120 -2 -77 -3z"/>
<path d="M4408 2213 c12 -2 32 -2 45 0 12 2 2 4 -23 4 -25 0 -35 -2 -22 -4z"/>
<path d="M4700 2212 c0 -4 17 -6 38 -4 64 6 69 10 15 11 -29 0 -53 -3 -53 -7z"/>
<path d="M5203 2213 c15 -2 37 -2 50 0 12 2 0 4 -28 4 -27 0 -38 -2 -22 -4z"/>
<path d="M5883 2213 c43 -2 110 -2 150 0 40 1 5 3 -78 3 -82 0 -115 -2 -72 -3z"/>
<path d="M2674 2158 l-29 -33 33 29 c30 28 37 36 29 36 -2 0 -16 -15 -33 -32z"/>
<path d="M5709 2168 c7 -9 9 -23 5 -30 -6 -10 -4 -11 7 0 11 10 10 15 -6 30
-17 15 -18 15 -6 0z"/>
<path d="M3758 2143 c12 -2 30 -2 40 0 9 3 -1 5 -23 4 -22 0 -30 -2 -17 -4z"/>
<path d="M6318 2143 c12 -2 30 -2 40 0 9 3 -1 5 -23 4 -22 0 -30 -2 -17 -4z"/>
<path d="M1733 2080 c0 -36 2 -50 4 -32 2 17 2 47 0 65 -2 17 -4 3 -4 -33z"/>
<path d="M5884 2088 l1 -43 95 -1 95 0 -92 3 -92 4 -4 39 -4 40 1 -42z"/>
<path d="M3612 2095 c0 -16 2 -22 5 -12 2 9 2 23 0 30 -3 6 -5 -1 -5 -18z"/>
<path d="M5794 1950 c0 -85 2 -120 3 -77 2 42 2 112 0 155 -1 42 -3 7 -3 -78z"/>
<path d="M4103 2043 c26 -2 67 -2 90 0 23 2 2 3 -48 3 -49 0 -68 -1 -42 -3z"/>
<path d="M2563 2005 c0 -22 2 -30 4 -17 2 12 2 30 0 40 -3 9 -5 -1 -4 -23z"/>
<path d="M3052 2005 c0 -16 2 -22 5 -12 2 9 2 23 0 30 -3 6 -5 -1 -5 -18z"/>
<path d="M1853 1993 c15 -2 39 -2 55 0 15 2 2 4 -28 4 -30 0 -43 -2 -27 -4z"/>
<path d="M4463 1993 c15 -2 39 -2 55 0 15 2 2 4 -28 4 -30 0 -43 -2 -27 -4z"/>
<path d="M5884 1918 l1 -43 107 -3 107 -3 4 -34 4 -35 -1 37 -1 38 -107 3
-107 3 -4 39 -4 40 1 -42z"/>
<path d="M1733 1880 c0 -36 2 -50 4 -32 2 17 2 47 0 65 -2 17 -4 3 -4 -33z"/>
<path d="M1853 1913 c15 -2 39 -2 55 0 15 2 2 4 -28 4 -30 0 -43 -2 -27 -4z"/>
<path d="M3963 1850 c0 -30 2 -43 4 -27 2 15 2 39 0 55 -2 15 -4 2 -4 -28z"/>
<path d="M2499 1853 l-24 -28 28 24 c25 23 32 31 24 31 -2 0 -14 -12 -28 -27z"/>
<path d="M3278 1873 c29 -2 74 -2 100 0 26 2 2 3 -53 3 -55 0 -76 -1 -47 -3z"/>
<path d="M4103 1873 c32 -2 81 -2 110 0 29 2 3 3 -58 3 -60 0 -84 -1 -52 -3z"/>
<path d="M1823 1835 c0 -22 2 -30 4 -17 2 12 2 30 0 40 -3 9 -5 -1 -4 -23z"/>
<path d="M1740 1632 c0 -5 14 -7 30 -4 17 2 30 6 30 8 0 2 -13 4 -30 4 -16 0
-30 -4 -30 -8z"/>
<path d="M4058 1623 c12 -2 30 -2 40 0 9 3 -1 5 -23 4 -22 0 -30 -2 -17 -4z"/>
<path d="M1758 1573 c12 -2 32 -2 45 0 12 2 2 4 -23 4 -25 0 -35 -2 -22 -4z"/>
<path d="M3343 1573 c9 -2 23 -2 30 0 6 3 -1 5 -18 5 -16 0 -22 -2 -12 -5z"/>
<path d="M5105 1570 c-13 -5 -14 -9 -5 -9 8 0 24 4 35 9 13 5 14 9 5 9 -8 0
-24 -4 -35 -9z"/>
<path d="M2083 1553 c9 -2 23 -2 30 0 6 3 -1 5 -18 5 -16 0 -22 -2 -12 -5z"/>
<path d="M2893 1553 c15 -2 39 -2 55 0 15 2 2 4 -28 4 -30 0 -43 -2 -27 -4z"/>
<path d="M3668 1553 c18 -2 45 -2 60 0 15 2 0 4 -33 4 -33 0 -45 -2 -27 -4z"/>
<path d="M4428 1553 c12 -2 30 -2 40 0 9 3 -1 5 -23 4 -22 0 -30 -2 -17 -4z"/>
<path d="M5193 1553 c15 -2 39 -2 55 0 15 2 2 4 -28 4 -30 0 -43 -2 -27 -4z"/>
<path d="M5933 1553 c15 -2 39 -2 55 0 15 2 2 4 -28 4 -30 0 -43 -2 -27 -4z"/>
<path d="M2820 1510 c-18 -12 -2 -12 25 0 13 6 15 9 5 9 -8 0 -22 -4 -30 -9z"/>
<path d="M2103 1493 c15 -2 39 -2 55 0 15 2 2 4 -28 4 -30 0 -43 -2 -27 -4z"/>
<path d="M2903 1493 c15 -2 37 -2 50 0 12 2 0 4 -28 4 -27 0 -38 -2 -22 -4z"/>
<path d="M3663 1493 c15 -2 39 -2 55 0 15 2 2 4 -28 4 -30 0 -43 -2 -27 -4z"/>
<path d="M4428 1493 c12 -2 30 -2 40 0 9 3 -1 5 -23 4 -22 0 -30 -2 -17 -4z"/>
<path d="M5188 1493 c12 -2 32 -2 45 0 12 2 2 4 -23 4 -25 0 -35 -2 -22 -4z"/>
<path d="M5938 1493 c12 -2 32 -2 45 0 12 2 2 4 -23 4 -25 0 -35 -2 -22 -4z"/>
<path d="M2178 1333 c23 -2 59 -2 80 0 20 2 1 4 -43 4 -44 0 -61 -2 -37 -4z"/>
<path d="M2413 1333 c9 -2 23 -2 30 0 6 3 -1 5 -18 5 -16 0 -22 -2 -12 -5z"/>
<path d="M2564 1326 c-3 -7 -3 -42 -1 -77 l3 -64 2 72 c2 59 5 72 20 76 16 4
16 5 -1 6 -10 0 -20 -5 -23 -13z"/>
<path d="M2904 1327 c-2 -7 -3 -58 -1 -113 l3 -99 2 108 c2 110 8 124 42 95
12 -11 12 -10 1 5 -16 20 -40 22 -47 4z"/>
<path d="M3914 1327 c-3 -8 -3 -56 -1 -108 l3 -94 2 102 2 102 73 4 72 3 -73
2 c-53 1 -74 -2 -78 -11z"/>
<path d="M4114 1327 c-2 -7 -3 -58 -1 -113 l3 -99 2 107 2 107 48 4 47 3 -48
2 c-32 1 -49 -2 -53 -11z"/>
<path d="M4300 1331 c0 -5 9 -7 20 -4 11 3 20 7 20 9 0 2 -9 4 -20 4 -11 0
-20 -4 -20 -9z"/>
<path d="M4440 1336 c0 -2 9 -6 20 -9 11 -3 20 -1 20 4 0 5 -9 9 -20 9 -11 0
-20 -2 -20 -4z"/>
<path d="M4504 1327 c-3 -8 -3 -56 -1 -108 l3 -94 2 102 c2 87 4 102 20 106
16 4 16 5 -1 6 -10 0 -20 -5 -23 -12z"/>
<path d="M4858 1333 c23 -2 59 -2 80 0 20 2 1 4 -43 4 -44 0 -61 -2 -37 -4z"/>
<path d="M5408 1333 c12 -2 32 -2 45 0 12 2 2 4 -23 4 -25 0 -35 -2 -22 -4z"/>
<path d="M5638 1333 c23 -2 59 -2 80 0 20 2 1 4 -43 4 -44 0 -61 -2 -37 -4z"/>
<path d="M5794 1327 c-2 -7 -3 -58 -1 -113 l3 -99 2 107 2 107 48 4 47 3 -48
2 c-32 1 -49 -2 -53 -11z"/>
<path d="M6060 1336 c0 -2 11 -6 25 -8 13 -3 22 -1 19 3 -5 9 -44 13 -44 5z"/>
<path d="M6314 1327 c-2 -7 -3 -58 -1 -113 l3 -99 2 107 c1 74 6 108 15 111 9
4 9 6 -1 6 -7 1 -15 -5 -18 -12z"/>
<path d="M6363 1333 c9 -2 23 -2 30 0 6 3 -1 5 -18 5 -16 0 -22 -2 -12 -5z"/>
<path d="M2184 1285 c-3 -8 -4 -20 -1 -27 3 -7 6 -3 6 9 1 19 8 22 49 26 l47
3 -48 2 c-34 1 -49 -2 -53 -13z"/>
<path d="M3983 1293 c15 -2 39 -2 55 0 15 2 2 4 -28 4 -30 0 -43 -2 -27 -4z"/>
<path d="M4173 1293 c9 -2 25 -2 35 0 9 3 1 5 -18 5 -19 0 -27 -2 -17 -5z"/>
<path d="M5424 1286 c-3 -8 -4 -25 -1 -38 3 -18 5 -16 6 9 1 26 6 32 29 36
l27 4 -28 2 c-16 0 -30 -5 -33 -13z"/>
<path d="M5853 1293 c9 -2 25 -2 35 0 9 3 1 5 -18 5 -19 0 -27 -2 -17 -5z"/>
<path d="M6373 1293 c9 -2 25 -2 35 0 9 3 1 5 -18 5 -19 0 -27 -2 -17 -5z"/>
<path d="M6213 1245 c0 -22 2 -30 4 -17 2 12 2 30 0 40 -3 9 -5 -1 -4 -23z"/>
<path d="M6482 1255 c0 -16 2 -22 5 -12 2 9 2 23 0 30 -3 6 -5 -1 -5 -18z"/>
<path d="M4632 1225 c0 -16 2 -22 5 -12 2 9 2 23 0 30 -3 6 -5 -1 -5 -18z"/>
<path d="M4893 1243 c15 -2 37 -2 50 0 12 2 0 4 -28 4 -27 0 -38 -2 -22 -4z"/>
<path d="M5673 1243 c15 -2 37 -2 50 0 12 2 0 4 -28 4 -27 0 -38 -2 -22 -4z"/>
<path d="M2182 1185 c0 -16 2 -22 5 -12 2 9 2 23 0 30 -3 6 -5 -1 -5 -18z"/>
<path d="M5422 1150 c0 -19 2 -27 5 -17 2 9 2 25 0 35 -3 9 -5 1 -5 -18z"/>
<path d="M2403 1163 c15 -2 37 -2 50 0 12 2 0 4 -28 4 -27 0 -38 -2 -22 -4z"/>
<path d="M4152 1145 c0 -16 2 -22 5 -12 2 9 2 23 0 30 -3 6 -5 -1 -5 -18z"/>
<path d="M6026 1162 c-2 -4 14 -6 37 -4 68 5 76 10 20 11 -28 0 -54 -2 -57 -7z"/>
</g>
</g>
</svg>
